<mxfile host="app.diagrams.net" modified="2021-05-22T09:07:49.588Z" agent="5.0 (Windows NT 10.0; Win64; x64) AppleWebKit/537.36 (KHTML, like Gecko) Chrome/90.0.4430.93 Safari/537.36 Edg/90.0.818.56" etag="rX4Az2lQ_FG3qEe-8sHk" version="14.6.13" type="github">
  <diagram id="QwhQ0wD6SPOJ9gZdsYJc" name="Page-1">
    <mxGraphModel dx="1038" dy="585" grid="1" gridSize="10" guides="1" tooltips="1" connect="1" arrows="1" fold="1" page="1" pageScale="1" pageWidth="827" pageHeight="1169" math="0" shadow="0">
      <root>
        <mxCell id="0" />
        <mxCell id="1" parent="0" />
        <mxCell id="nxUDcpF-Gxnw0r5k9RCp-15" value="&lt;b&gt;Opt&lt;/b&gt;" style="shape=umlFrame;whiteSpace=wrap;html=1;width=80;height=20;" vertex="1" parent="1">
          <mxGeometry x="25" y="280" width="735" height="130" as="geometry" />
        </mxCell>
        <mxCell id="nxUDcpF-Gxnw0r5k9RCp-1" value="" style="shape=umlActor;verticalLabelPosition=bottom;verticalAlign=top;html=1;outlineConnect=0;" vertex="1" parent="1">
          <mxGeometry x="115" y="50" width="40" height="80" as="geometry" />
        </mxCell>
        <mxCell id="nxUDcpF-Gxnw0r5k9RCp-2" value="" style="endArrow=none;dashed=1;html=1;entryX=0.5;entryY=0.5;entryDx=0;entryDy=0;entryPerimeter=0;" edge="1" parent="1" target="nxUDcpF-Gxnw0r5k9RCp-1">
          <mxGeometry width="50" height="50" relative="1" as="geometry">
            <mxPoint x="135" y="420" as="sourcePoint" />
            <mxPoint x="170" y="150" as="targetPoint" />
            <Array as="points">
              <mxPoint x="135" y="340" />
            </Array>
          </mxGeometry>
        </mxCell>
        <mxCell id="nxUDcpF-Gxnw0r5k9RCp-54" value="Captain" style="edgeLabel;html=1;align=center;verticalAlign=middle;resizable=0;points=[];" vertex="1" connectable="0" parent="nxUDcpF-Gxnw0r5k9RCp-2">
          <mxGeometry x="0.8446" y="4" relative="1" as="geometry">
            <mxPoint x="4" y="24" as="offset" />
          </mxGeometry>
        </mxCell>
        <mxCell id="nxUDcpF-Gxnw0r5k9RCp-3" value="" style="html=1;points=[];perimeter=orthogonalPerimeter;" vertex="1" parent="1">
          <mxGeometry x="130" y="190" width="10" height="120" as="geometry" />
        </mxCell>
        <mxCell id="nxUDcpF-Gxnw0r5k9RCp-5" value="" style="endArrow=none;dashed=1;html=1;startArrow=none;" edge="1" parent="1" source="nxUDcpF-Gxnw0r5k9RCp-18">
          <mxGeometry width="50" height="50" relative="1" as="geometry">
            <mxPoint x="304.76" y="450" as="sourcePoint" />
            <mxPoint x="305" y="50" as="targetPoint" />
          </mxGeometry>
        </mxCell>
        <mxCell id="nxUDcpF-Gxnw0r5k9RCp-6" value="" style="html=1;points=[];perimeter=orthogonalPerimeter;" vertex="1" parent="1">
          <mxGeometry x="300" y="190" width="10" height="90" as="geometry" />
        </mxCell>
        <mxCell id="nxUDcpF-Gxnw0r5k9RCp-7" value="1.Login()" style="html=1;verticalAlign=bottom;endArrow=block;" edge="1" parent="1" target="nxUDcpF-Gxnw0r5k9RCp-6">
          <mxGeometry width="80" relative="1" as="geometry">
            <mxPoint x="140" y="200" as="sourcePoint" />
            <mxPoint x="220" y="200" as="targetPoint" />
          </mxGeometry>
        </mxCell>
        <mxCell id="nxUDcpF-Gxnw0r5k9RCp-8" value="2.Verify Captain Identity()" style="html=1;verticalAlign=bottom;endArrow=block;" edge="1" parent="1" target="nxUDcpF-Gxnw0r5k9RCp-6">
          <mxGeometry x="-0.1195" y="10" width="80" relative="1" as="geometry">
            <mxPoint x="310" y="220" as="sourcePoint" />
            <mxPoint x="390" y="200" as="targetPoint" />
            <Array as="points">
              <mxPoint x="380" y="220" />
              <mxPoint x="380" y="239" />
            </Array>
            <mxPoint as="offset" />
          </mxGeometry>
        </mxCell>
        <mxCell id="nxUDcpF-Gxnw0r5k9RCp-9" value="" style="ellipse;shape=umlControl;whiteSpace=wrap;html=1;" vertex="1" parent="1">
          <mxGeometry x="445" y="30" width="80" height="90" as="geometry" />
        </mxCell>
        <mxCell id="nxUDcpF-Gxnw0r5k9RCp-10" value="" style="endArrow=none;dashed=1;html=1;" edge="1" parent="1">
          <mxGeometry width="50" height="50" relative="1" as="geometry">
            <mxPoint x="485" y="420" as="sourcePoint" />
            <mxPoint x="484.7600000000002" y="120" as="targetPoint" />
          </mxGeometry>
        </mxCell>
        <mxCell id="nxUDcpF-Gxnw0r5k9RCp-11" value="" style="html=1;points=[];perimeter=orthogonalPerimeter;" vertex="1" parent="1">
          <mxGeometry x="480" y="250" width="10" height="50" as="geometry" />
        </mxCell>
        <mxCell id="nxUDcpF-Gxnw0r5k9RCp-12" value="3.Set new Limit()" style="html=1;verticalAlign=bottom;endArrow=block;" edge="1" parent="1">
          <mxGeometry width="80" relative="1" as="geometry">
            <mxPoint x="140" y="259" as="sourcePoint" />
            <mxPoint x="300" y="259" as="targetPoint" />
          </mxGeometry>
        </mxCell>
        <mxCell id="nxUDcpF-Gxnw0r5k9RCp-16" value="" style="ellipse;shape=umlEntity;whiteSpace=wrap;html=1;" vertex="1" parent="1">
          <mxGeometry x="650" y="40" width="80" height="80" as="geometry" />
        </mxCell>
        <mxCell id="nxUDcpF-Gxnw0r5k9RCp-17" value="" style="shape=umlBoundary;whiteSpace=wrap;html=1;" vertex="1" parent="1">
          <mxGeometry x="260" y="40" width="80" height="70" as="geometry" />
        </mxCell>
        <mxCell id="nxUDcpF-Gxnw0r5k9RCp-18" value="&lt;span style=&quot;color: rgb(51 , 51 , 51) ; font-family: &amp;#34;helvetica&amp;#34; ; font-size: 12px ; font-style: italic ; font-weight: 400 ; letter-spacing: normal ; text-align: center ; text-indent: 0px ; text-transform: none ; word-spacing: 0px ; background-color: rgb(248 , 249 , 250) ; display: inline ; float: none&quot;&gt;Dormancy Management System Interface&lt;/span&gt;" style="text;whiteSpace=wrap;html=1;" vertex="1" parent="1">
          <mxGeometry x="240" y="110" width="140" height="30" as="geometry" />
        </mxCell>
        <mxCell id="nxUDcpF-Gxnw0r5k9RCp-19" value="" style="endArrow=none;dashed=1;html=1;" edge="1" parent="1">
          <mxGeometry width="50" height="50" relative="1" as="geometry">
            <mxPoint x="306" y="420" as="sourcePoint" />
            <mxPoint x="306" y="112" as="targetPoint" />
          </mxGeometry>
        </mxCell>
        <mxCell id="nxUDcpF-Gxnw0r5k9RCp-20" value="&lt;span style=&quot;color: rgb(51 , 51 , 51) ; font-family: &amp;#34;helvetica&amp;#34; ; font-style: italic ; text-align: center&quot;&gt;Dormancy Management System&lt;/span&gt;" style="text;whiteSpace=wrap;html=1;" vertex="1" parent="1">
          <mxGeometry x="400" y="120" width="185" height="30" as="geometry" />
        </mxCell>
        <mxCell id="nxUDcpF-Gxnw0r5k9RCp-21" value="&lt;span style=&quot;color: rgb(0 , 0 , 0) ; font-family: &amp;#34;helvetica&amp;#34; ; font-size: 12px ; font-style: normal ; font-weight: 400 ; letter-spacing: normal ; text-align: center ; text-indent: 0px ; text-transform: none ; word-spacing: 0px ; background-color: rgb(248 , 249 , 250) ; display: inline ; float: none&quot;&gt;Dormant Cabin&lt;/span&gt;" style="text;whiteSpace=wrap;html=1;" vertex="1" parent="1">
          <mxGeometry x="650" y="120" width="110" height="30" as="geometry" />
        </mxCell>
        <mxCell id="nxUDcpF-Gxnw0r5k9RCp-22" value="" style="endArrow=none;dashed=1;html=1;" edge="1" parent="1">
          <mxGeometry width="50" height="50" relative="1" as="geometry">
            <mxPoint x="690" y="420" as="sourcePoint" />
            <mxPoint x="689.5799999999999" y="120" as="targetPoint" />
          </mxGeometry>
        </mxCell>
        <mxCell id="nxUDcpF-Gxnw0r5k9RCp-23" value="" style="html=1;points=[];perimeter=orthogonalPerimeter;" vertex="1" parent="1">
          <mxGeometry x="685" y="360" width="10" height="20" as="geometry" />
        </mxCell>
        <mxCell id="nxUDcpF-Gxnw0r5k9RCp-26" value="5.Wake up some crew()" style="html=1;verticalAlign=bottom;endArrow=block;entryX=-0.1;entryY=0.117;entryDx=0;entryDy=0;entryPerimeter=0;" edge="1" parent="1" target="nxUDcpF-Gxnw0r5k9RCp-63">
          <mxGeometry width="80" relative="1" as="geometry">
            <mxPoint x="142" y="307" as="sourcePoint" />
            <mxPoint x="310" y="352" as="targetPoint" />
          </mxGeometry>
        </mxCell>
        <mxCell id="nxUDcpF-Gxnw0r5k9RCp-58" value="4.Modify the limit()" style="html=1;verticalAlign=bottom;endArrow=block;entryX=-0.1;entryY=0.397;entryDx=0;entryDy=0;entryPerimeter=0;" edge="1" parent="1" target="nxUDcpF-Gxnw0r5k9RCp-11">
          <mxGeometry x="0.0569" y="-1" width="80" relative="1" as="geometry">
            <mxPoint x="310" y="270" as="sourcePoint" />
            <mxPoint x="470" y="280" as="targetPoint" />
            <mxPoint as="offset" />
          </mxGeometry>
        </mxCell>
        <mxCell id="nxUDcpF-Gxnw0r5k9RCp-63" value="" style="html=1;points=[];perimeter=orthogonalPerimeter;" vertex="1" parent="1">
          <mxGeometry x="300" y="300" width="10" height="60" as="geometry" />
        </mxCell>
        <mxCell id="nxUDcpF-Gxnw0r5k9RCp-60" value="New limit&amp;lt;number of current dormant people" style="text;html=1;strokeColor=none;fillColor=none;align=center;verticalAlign=middle;whiteSpace=wrap;rounded=0;" vertex="1" parent="1">
          <mxGeometry x="20" y="320" width="140" height="20" as="geometry" />
        </mxCell>
        <mxCell id="nxUDcpF-Gxnw0r5k9RCp-64" value="6.Send wake-up signal()" style="html=1;verticalAlign=bottom;endArrow=block;entryX=-0.04;entryY=0.38;entryDx=0;entryDy=0;entryPerimeter=0;exitX=1.5;exitY=0.203;exitDx=0;exitDy=0;exitPerimeter=0;" edge="1" parent="1" target="nxUDcpF-Gxnw0r5k9RCp-71">
          <mxGeometry width="80" relative="1" as="geometry">
            <mxPoint x="310" y="341.2700000000001" as="sourcePoint" />
            <mxPoint x="464" y="340" as="targetPoint" />
          </mxGeometry>
        </mxCell>
        <mxCell id="nxUDcpF-Gxnw0r5k9RCp-71" value="" style="html=1;points=[];perimeter=orthogonalPerimeter;" vertex="1" parent="1">
          <mxGeometry x="480" y="320" width="10" height="60" as="geometry" />
        </mxCell>
        <mxCell id="nxUDcpF-Gxnw0r5k9RCp-72" value="7.Execute wake up command()" style="html=1;verticalAlign=bottom;endArrow=block;" edge="1" parent="1">
          <mxGeometry x="0.0152" width="80" relative="1" as="geometry">
            <mxPoint x="490" y="371" as="sourcePoint" />
            <mxPoint x="687" y="371" as="targetPoint" />
            <mxPoint as="offset" />
          </mxGeometry>
        </mxCell>
      </root>
    </mxGraphModel>
  </diagram>
</mxfile>
